<mxfile host="app.diagrams.net" modified="2024-06-18T15:59:16.384Z" agent="Mozilla/5.0 (Windows NT 10.0; Win64; x64; rv:127.0) Gecko/20100101 Firefox/127.0" version="24.5.5" etag="S-o9Q3Q0O3hJPHmFXY8q" type="github">
  <diagram name="Page-1" id="DHgxAr90pMYD3epojZ4j">
    <mxGraphModel>
      <root>
        <mxCell id="0" />
        <mxCell id="1" parent="0" />
      </root>
    </mxGraphModel>
  </diagram>
</mxfile>
